name Walk6.mot
datacolumns 19
datarows 12
range 1.96600000 1.97700000
endheader

                time	   L_ground_force_vx	   L_ground_force_vy	   L_ground_force_vz	   L_ground_force_px	   L_ground_force_py	   L_ground_force_pz	   R_ground_force_vx	   R_ground_force_vy	   R_ground_force_vz	   R_ground_force_px	   R_ground_force_py	   R_ground_force_pz	   L_ground_torque_x	   L_ground_torque_y	   L_ground_torque_z	   R_ground_torque_x	   R_ground_torque_y	   R_ground_torque_z	
          1.96600000	          0.00000000	          0.00000000	          0.00000000	          0.00000000	          0.00000000	          0.00000000	          0.00000000	          0.00000000	          0.00000000	          0.00000000	          0.00000000	          0.00000000	          0.00000000	          0.00000000	          0.00000000	          0.00000000	          0.00000000	          0.00000000	
          1.96700000	          0.00000000	          0.00000000	          0.00000000	          0.00000000	          0.00000000	          0.00000000	          0.00000000	          0.00000000	          0.00000000	          0.00000000	          0.00000000	          0.00000000	          0.00000000	          0.00000000	          0.00000000	          0.00000000	          0.00000000	          0.00000000	
          1.96800000	          0.00000000	          0.00000000	          0.00000000	          0.00000000	          0.00000000	          0.00000000	          0.00000000	          0.00000000	          0.00000000	          0.00000000	          0.00000000	          0.00000000	          0.00000000	          0.00000000	          0.00000000	          0.00000000	          0.00000000	          0.00000000	
          1.96900000	          0.00000000	          0.00000000	          0.00000000	          0.00000000	          0.00000000	          0.00000000	          0.00000000	          0.00000000	          0.00000000	          0.00000000	          0.00000000	          0.00000000	          0.00000000	          0.00000000	          0.00000000	          0.00000000	          0.00000000	          0.00000000	
          1.97000000	         -7.02934475	         15.59419662	         -0.01433532	         -0.31085568	          0.00000000	         -0.00060088	          0.00000000	          0.00000000	          0.00000000	          0.00000000	          0.00000000	          0.00000000	          0.00000000	          0.32710275	          0.00000000	          0.00000000	          0.00000000	          0.00000000	
          1.97100000	        -10.62483786	         25.43100412	          0.12024988	         -0.31535808	          0.00000000	         -0.00877725	          0.00000000	          0.00000000	          0.00000000	          0.00000000	          0.00000000	          0.00000000	          0.00000000	          0.41113224	          0.00000000	          0.00000000	          0.00000000	          0.00000000	
          1.97200000	        -14.49362079	         37.95634253	          0.38729796	         -0.31914250	          0.00000000	         -0.01588670	          0.00000000	          0.00000000	          0.00000000	          0.00000000	          0.00000000	          0.00000000	          0.00000000	          0.46029816	          0.00000000	          0.00000000	          0.00000000	          0.00000000	
          1.97300000	        -18.35531811	         53.57384681	          0.81893438	         -0.32208882	          0.00000000	         -0.02180015	          0.00000000	          0.00000000	          0.00000000	          0.00000000	          0.00000000	          0.00000000	          0.00000000	          0.47596850	          0.00000000	          0.00000000	          0.00000000	          0.00000000	
          1.97400000	        -21.94912373	         72.56351966	          1.42772415	         -0.32399096	          0.00000000	         -0.02642481	          0.00000000	          0.00000000	          0.00000000	          0.00000000	          0.00000000	          0.00000000	          0.00000000	          0.47026394	          0.00000000	          0.00000000	          0.00000000	          0.00000000	
          1.97500000	        -24.99773464	         94.59464177	          2.20209837	         -0.32492674	          0.00000000	         -0.02983879	          0.00000000	          0.00000000	          0.00000000	          0.00000000	          0.00000000	          0.00000000	          0.00000000	          0.45827296	          0.00000000	          0.00000000	          0.00000000	          0.00000000	
          1.97600000	        -27.23812006	        118.55010613	          3.09419432	         -0.32520956	          0.00000000	         -0.03209940	          0.00000000	          0.00000000	          0.00000000	          0.00000000	          0.00000000	          0.00000000	          0.00000000	          0.45770561	          0.00000000	          0.00000000	          0.00000000	          0.00000000	
          1.97700000	        -28.48326197	        142.73599393	          4.01264054	         -0.32513248	          0.00000000	         -0.03327605	          0.00000000	          0.00000000	          0.00000000	          0.00000000	          0.00000000	          0.00000000	          0.00000000	          0.48053637	          0.00000000	          0.00000000	          0.00000000	          0.00000000	
